<svg id="logosandtypes_com" xmlns="http://www.w3.org/2000/svg" viewBox="0 0 150 150.2"><path d="M0 .2h150v150H0V.2z" fill="none"/><g><linearGradient id="a" gradientUnits="userSpaceOnUse" x1="5.439" y1="4.3759" x2="5.439" y2="5.8301" gradientTransform="matrix(86.0003 0 0 77 -392.4178 -318.998)"><stop offset="0" stop-color="#ef3e42"/><stop offset="1" stop-color="#ffc82d"/></linearGradient><path d="M75.4 18c-27 0-51 17.2-59.5 42.8-8.4 25.4.7 53.4 22.5 69.2 22-16 51.9-16 73.9 0 21.8-15.8 30.8-43.8 22.5-69.2C126.4 35.1 102.4 18 75.4 18zm0 93.6c-17.6 0-31.8-14.3-31.8-31.7s14.3-31.6 31.8-31.7c17.6 0 31.8 14.1 31.8 31.6 0 8.4-3.3 16.4-9.3 22.4-6 6.1-14.1 9.4-22.5 9.4z" fill="url(#a)"/></g></svg>